<svg width="191" height="191" viewBox="0 0 191 191" fill="none" xmlns="http://www.w3.org/2000/svg">
<path d="M186.225 0H4.775C2.13784 0 0 2.13783 0 4.775V186.225C0 188.862 2.13783 191 4.775 191H186.225C188.862 191 191 188.862 191 186.225V4.775C191 2.13784 188.862 0 186.225 0Z" fill="#0E141E"/>
<path d="M156.357 133.7C157.028 133.7 157.575 133.176 157.575 132.521V58.4795C157.575 57.8243 157.028 57.3 156.357 57.3H101.493C100.822 57.3 100.275 57.8243 100.275 58.4795V132.521C100.275 133.176 100.822 133.7 101.493 133.7H156.357Z" fill="#00EA64"/>
<path d="M90.3 57H70.7874V85.5077H52.5126V57H33V133.4H52.5126V102.518H70.7874V133.4H90.3V57Z" fill="white"/>
</svg>
