<svg width="191" height="191" viewBox="0 0 191 191" fill="none" xmlns="http://www.w3.org/2000/svg">
<path d="M186.225 0H4.775C2.13784 0 0 2.13783 0 4.775V186.225C0 188.862 2.13783 191 4.775 191H186.225C188.862 191 191 188.862 191 186.225V4.775C191 2.13784 188.862 0 186.225 0Z" fill="white"/>
<path d="M156.082 133.4C156.753 133.4 157.3 132.876 157.3 132.221V58.1794C157.3 57.5243 156.753 57 156.082 57H101.218C100.547 57 100 57.5243 100 58.1794V132.221C100 132.876 100.547 133.4 101.218 133.4H156.082Z" fill="#32C766"/>
<path d="M90.725 57.3H71.2125V85.8078H52.9376V57.3H33.425V133.7H52.9376V102.818H71.2125V133.7H90.725V57.3Z" fill="#0E141E"/>
</svg>
